<?xml version="1.0" encoding="UTF-8" standalone="no"?>
<!-- Created with matplotlib (http://matplotlib.org/) -->

<svg
   xmlns:dc="http://purl.org/dc/elements/1.1/"
   xmlns:cc="http://creativecommons.org/ns#"
   xmlns:rdf="http://www.w3.org/1999/02/22-rdf-syntax-ns#"
   xmlns:svg="http://www.w3.org/2000/svg"
   xmlns="http://www.w3.org/2000/svg"
   xmlns:xlink="http://www.w3.org/1999/xlink"
   xmlns:sodipodi="http://sodipodi.sourceforge.net/DTD/sodipodi-0.dtd"
   xmlns:inkscape="http://www.inkscape.org/namespaces/inkscape"
   height="319.78946"
   version="1.1"
   viewBox="0 0 469.46079 255.83157"
   width="586.82599"
   id="svg2"
   inkscape:version="0.48.4 r9939"
   sodipodi:docname="temp.svg">
  <metadata
     id="metadata322">
    <rdf:RDF>
      <cc:Work
         rdf:about="">
        <dc:format>image/svg+xml</dc:format>
        <dc:type
           rdf:resource="http://purl.org/dc/dcmitype/StillImage" />
      </cc:Work>
    </rdf:RDF>
  </metadata>
  <sodipodi:namedview
     pagecolor="#ffffff"
     bordercolor="#666666"
     borderopacity="1"
     objecttolerance="10"
     gridtolerance="10"
     guidetolerance="10"
     inkscape:pageopacity="0"
     inkscape:pageshadow="2"
     inkscape:window-width="1280"
     inkscape:window-height="973"
     id="namedview320"
     showgrid="false"
     fit-margin-top="0"
     fit-margin-left="0"
     fit-margin-right="0"
     fit-margin-bottom="0"
     inkscape:zoom="1.3378909"
     inkscape:cx="205.94822"
     inkscape:cy="95.076489"
     inkscape:window-x="0"
     inkscape:window-y="24"
     inkscape:window-maximized="1"
     inkscape:current-layer="svg2" />
  <defs
     id="defs4"
     style="stroke-linecap:butt;stroke-linejoin:round">
    <style
       type="text/css"
       id="style6">
*{stroke-linecap:butt;stroke-linejoin:round;}
  </style>
  </defs>
  <g
     style="stroke-linecap:butt;stroke-linejoin:round"
     id="patch_1"
     transform="translate(-16.226719,-16.202812)">
    <path
       inkscape:connector-curvature="0"
       id="path10"
       style="fill:#ffffff;stroke-linecap:butt;stroke-linejoin:round"
       d="M 0,288 504,288 504,0 0,0 z" />
  </g>
  <g
     style="stroke-linecap:butt;stroke-linejoin:round"
     id="axes_1"
     transform="translate(-16.226719,-16.202812)">
    <g
       style="stroke-linecap:butt;stroke-linejoin:round"
       id="patch_2">
      <path
         inkscape:connector-curvature="0"
         id="path14"
         style="fill:#ffffff;stroke-linecap:butt;stroke-linejoin:round"
         d="m 51.14,232 434.14,0 0,-196.12 -434.14,0 z" />
    </g>
    <g
       style="stroke-linecap:butt;stroke-linejoin:round"
       id="matplotlib.axis_1">
      <g
         style="stroke-linecap:butt;stroke-linejoin:round"
         id="xtick_1">
        <g
           style="stroke-linecap:butt;stroke-linejoin:round"
           id="line2d_1">
          <defs
             id="defs19">
            <path
               inkscape:connector-curvature="0"
               style="stroke:#000000;stroke-width:0.80000001;stroke-linecap:butt;stroke-linejoin:round"
               id="me2a01dd63f"
               d="M 0,0 0,3.5" />
          </defs>
          <g
             style="stroke-linecap:butt;stroke-linejoin:round"
             id="g22">
            <use
               height="288"
               width="504"
               id="use24"
               y="232"
               xlink:href="#me2a01dd63f"
               x="70.873634"
               style="stroke:#000000;stroke-width:0.80000001;stroke-linecap:butt;stroke-linejoin:round" />
          </g>
        </g>
        <g
           style="stroke-linecap:butt;stroke-linejoin:round"
           id="text_1">
          <!-- 0 -->
          <defs
             id="defs27">
            <path
               style="stroke-linecap:butt;stroke-linejoin:round"
               inkscape:connector-curvature="0"
               id="DejaVuSans-30"
               d="m 31.78125,66.40625 q -7.609375,0 -11.453125,-7.5 Q 16.5,51.421875 16.5,36.375 q 0,-14.984375 3.828125,-22.484375 3.84375,-7.5 11.453125,-7.5 7.671875,0 11.5,7.5 3.84375,7.5 3.84375,22.484375 0,15.046875 -3.84375,22.53125 -3.828125,7.5 -11.5,7.5 z m 0,7.8125 q 12.265625,0 18.734375,-9.703125 6.46875,-9.6875 6.46875,-28.140625 0,-18.40625 -6.46875,-28.109375 -6.46875,-9.6875 -18.734375,-9.6875 -12.25,0 -18.71875,9.6875 Q 6.59375,17.96875 6.59375,36.375 q 0,18.453125 6.46875,28.140625 6.46875,9.703125 18.71875,9.703125 z" />
          </defs>
          <g
             style="stroke-linecap:butt;stroke-linejoin:round"
             id="g30"
             transform="matrix(0.15,0,0,-0.15,66.101761,250.39766)">
            <use
               height="288"
               width="504"
               y="0"
               x="0"
               style="stroke-linecap:butt;stroke-linejoin:round"
               id="use32"
               xlink:href="#DejaVuSans-30" />
          </g>
        </g>
      </g>
      <g
         style="stroke-linecap:butt;stroke-linejoin:round"
         id="xtick_2">
        <g
           style="stroke-linecap:butt;stroke-linejoin:round"
           id="line2d_2">
          <g
             style="stroke-linecap:butt;stroke-linejoin:round"
             id="g36">
            <use
               height="288"
               width="504"
               id="use38"
               y="232"
               xlink:href="#me2a01dd63f"
               x="149.88719"
               style="stroke:#000000;stroke-width:0.80000001;stroke-linecap:butt;stroke-linejoin:round" />
          </g>
        </g>
        <g
           style="stroke-linecap:butt;stroke-linejoin:round"
           id="text_2">
          <!-- 200 -->
          <defs
             id="defs41">
            <path
               style="stroke-linecap:butt;stroke-linejoin:round"
               inkscape:connector-curvature="0"
               id="DejaVuSans-32"
               d="m 19.1875,8.296875 34.421875,0 0,-8.296875 -46.28125,0 0,8.296875 q 5.609375,5.8125 15.296875,15.59375 9.703125,9.796875 12.1875,12.640625 4.734375,5.3125 6.609375,9 1.890625,3.6875 1.890625,7.25 0,5.8125 -4.078125,9.46875 -4.078125,3.671875 -10.625,3.671875 -4.640625,0 -9.796875,-1.609375 -5.140625,-1.609375 -11,-4.890625 l 0,9.96875 Q 13.765625,71.78125 18.9375,73 q 5.1875,1.21875 9.484375,1.21875 11.328125,0 18.0625,-5.671875 6.734375,-5.65625 6.734375,-15.125 0,-4.5 -1.6875,-8.53125 Q 49.859375,40.875 45.40625,35.40625 44.1875,33.984375 37.640625,27.21875 31.109375,20.453125 19.1875,8.296875 z" />
          </defs>
          <g
             style="stroke-linecap:butt;stroke-linejoin:round"
             id="g44"
             transform="matrix(0.15,0,0,-0.15,135.57157,250.39766)">
            <use
               height="288"
               width="504"
               y="0"
               x="0"
               style="stroke-linecap:butt;stroke-linejoin:round"
               id="use46"
               xlink:href="#DejaVuSans-32" />
            <use
               height="288"
               width="504"
               y="0"
               style="stroke-linecap:butt;stroke-linejoin:round"
               id="use48"
               xlink:href="#DejaVuSans-30"
               x="63.623047" />
            <use
               height="288"
               width="504"
               y="0"
               style="stroke-linecap:butt;stroke-linejoin:round"
               id="use50"
               xlink:href="#DejaVuSans-30"
               x="127.24609" />
          </g>
        </g>
      </g>
      <g
         style="stroke-linecap:butt;stroke-linejoin:round"
         id="xtick_3">
        <g
           style="stroke-linecap:butt;stroke-linejoin:round"
           id="line2d_3">
          <g
             style="stroke-linecap:butt;stroke-linejoin:round"
             id="g54">
            <use
               height="288"
               width="504"
               id="use56"
               y="232"
               xlink:href="#me2a01dd63f"
               x="228.90076"
               style="stroke:#000000;stroke-width:0.80000001;stroke-linecap:butt;stroke-linejoin:round" />
          </g>
        </g>
        <g
           style="stroke-linecap:butt;stroke-linejoin:round"
           id="text_3">
          <!-- 400 -->
          <defs
             id="defs59">
            <path
               style="stroke-linecap:butt;stroke-linejoin:round"
               inkscape:connector-curvature="0"
               id="DejaVuSans-34"
               d="m 37.796875,64.3125 -24.90625,-38.921875 24.90625,0 z m -2.59375,8.59375 12.40625,0 0,-47.515625 10.40625,0 0,-8.203125 -10.40625,0 0,-17.1875 -9.8125,0 0,17.1875 -32.90625,0 0,9.515625 z" />
          </defs>
          <g
             style="stroke-linecap:butt;stroke-linejoin:round"
             id="g62"
             transform="matrix(0.15,0,0,-0.15,214.58513,250.39766)">
            <use
               height="288"
               width="504"
               y="0"
               x="0"
               style="stroke-linecap:butt;stroke-linejoin:round"
               id="use64"
               xlink:href="#DejaVuSans-34" />
            <use
               height="288"
               width="504"
               y="0"
               style="stroke-linecap:butt;stroke-linejoin:round"
               id="use66"
               xlink:href="#DejaVuSans-30"
               x="63.623047" />
            <use
               height="288"
               width="504"
               y="0"
               style="stroke-linecap:butt;stroke-linejoin:round"
               id="use68"
               xlink:href="#DejaVuSans-30"
               x="127.24609" />
          </g>
        </g>
      </g>
      <g
         style="stroke-linecap:butt;stroke-linejoin:round"
         id="xtick_4">
        <g
           style="stroke-linecap:butt;stroke-linejoin:round"
           id="line2d_4">
          <g
             style="stroke-linecap:butt;stroke-linejoin:round"
             id="g72">
            <use
               height="288"
               width="504"
               id="use74"
               y="232"
               xlink:href="#me2a01dd63f"
               x="307.91431"
               style="stroke:#000000;stroke-width:0.80000001;stroke-linecap:butt;stroke-linejoin:round" />
          </g>
        </g>
        <g
           style="stroke-linecap:butt;stroke-linejoin:round"
           id="text_4">
          <!-- 600 -->
          <defs
             id="defs77">
            <path
               style="stroke-linecap:butt;stroke-linejoin:round"
               inkscape:connector-curvature="0"
               id="DejaVuSans-36"
               d="m 33.015625,40.375 q -6.640625,0 -10.53125,-4.546875 -3.875,-4.53125 -3.875,-12.4375 0,-7.859375 3.875,-12.4375 3.890625,-4.5625 10.53125,-4.5625 6.640625,0 10.515625,4.5625 3.875,4.578125 3.875,12.4375 0,7.90625 -3.875,12.4375 Q 39.65625,40.375 33.015625,40.375 z m 19.578125,30.921875 0,-8.984375 q -3.71875,1.75 -7.5,2.671875 -3.78125,0.9375 -7.5,0.9375 -9.765625,0 -14.921875,-6.59375 -5.140625,-6.59375 -5.875,-19.921875 2.875,4.25 7.21875,6.515625 4.359375,2.265625 9.578125,2.265625 10.984375,0 17.359375,-6.671875 6.375,-6.65625 6.375,-18.125 0,-11.234375 -6.640625,-18.03125 -6.640625,-6.78125 -17.671875,-6.78125 -12.65625,0 -19.34375,9.6875 -6.6875,9.703125 -6.6875,28.109375 0,17.28125 8.203125,27.5625 8.203125,10.28125 22.015625,10.28125 3.71875,0 7.5,-0.734375 3.78125,-0.734375 7.890625,-2.1875 z" />
          </defs>
          <g
             style="stroke-linecap:butt;stroke-linejoin:round"
             id="g80"
             transform="matrix(0.15,0,0,-0.15,293.59869,250.39766)">
            <use
               height="288"
               width="504"
               y="0"
               x="0"
               style="stroke-linecap:butt;stroke-linejoin:round"
               id="use82"
               xlink:href="#DejaVuSans-36" />
            <use
               height="288"
               width="504"
               y="0"
               style="stroke-linecap:butt;stroke-linejoin:round"
               id="use84"
               xlink:href="#DejaVuSans-30"
               x="63.623047" />
            <use
               height="288"
               width="504"
               y="0"
               style="stroke-linecap:butt;stroke-linejoin:round"
               id="use86"
               xlink:href="#DejaVuSans-30"
               x="127.24609" />
          </g>
        </g>
      </g>
      <g
         style="stroke-linecap:butt;stroke-linejoin:round"
         id="xtick_5">
        <g
           style="stroke-linecap:butt;stroke-linejoin:round"
           id="line2d_5">
          <g
             style="stroke-linecap:butt;stroke-linejoin:round"
             id="g90">
            <use
               height="288"
               width="504"
               id="use92"
               y="232"
               xlink:href="#me2a01dd63f"
               x="386.92789"
               style="stroke:#000000;stroke-width:0.80000001;stroke-linecap:butt;stroke-linejoin:round" />
          </g>
        </g>
        <g
           style="stroke-linecap:butt;stroke-linejoin:round"
           id="text_5">
          <!-- 800 -->
          <defs
             id="defs95">
            <path
               style="stroke-linecap:butt;stroke-linejoin:round"
               inkscape:connector-curvature="0"
               id="DejaVuSans-38"
               d="m 31.78125,34.625 q -7.03125,0 -11.0625,-3.765625 -4.015625,-3.765625 -4.015625,-10.34375 0,-6.59375 4.015625,-10.359375 4.03125,-3.765625 11.0625,-3.765625 7.03125,0 11.078125,3.78125 4.0625,3.796875 4.0625,10.34375 0,6.578125 -4.03125,10.34375 Q 38.875,34.625 31.78125,34.625 z m -9.859375,4.1875 Q 15.578125,40.375 12.03125,44.71875 8.5,49.078125 8.5,55.328125 q 0,8.734375 6.21875,13.8125 6.234375,5.078125 17.0625,5.078125 10.890625,0 17.09375,-5.078125 6.203125,-5.078125 6.203125,-13.8125 0,-6.25 -3.546875,-10.609375 Q 48,40.375 41.703125,38.8125 q 7.125,-1.65625 11.09375,-6.5 3.984375,-4.828125 3.984375,-11.796875 0,-10.609375 -6.46875,-16.28125 -6.46875,-5.65625 -18.53125,-5.65625 -12.046875,0 -18.53125,5.65625 -6.46875,5.671875 -6.46875,16.28125 0,6.96875 4,11.796875 4.015625,4.84375 11.140625,6.5 z M 18.3125,54.390625 q 0,-5.65625 3.53125,-8.828125 3.546875,-3.171875 9.9375,-3.171875 6.359375,0 9.9375,3.171875 3.59375,3.171875 3.59375,8.828125 0,5.671875 -3.59375,8.84375 -3.578125,3.171875 -9.9375,3.171875 -6.390625,0 -9.9375,-3.171875 Q 18.3125,60.0625 18.3125,54.390625 z" />
          </defs>
          <g
             style="stroke-linecap:butt;stroke-linejoin:round"
             id="g98"
             transform="matrix(0.15,0,0,-0.15,372.61225,250.39766)">
            <use
               height="288"
               width="504"
               y="0"
               x="0"
               style="stroke-linecap:butt;stroke-linejoin:round"
               id="use100"
               xlink:href="#DejaVuSans-38" />
            <use
               height="288"
               width="504"
               y="0"
               style="stroke-linecap:butt;stroke-linejoin:round"
               id="use102"
               xlink:href="#DejaVuSans-30"
               x="63.623047" />
            <use
               height="288"
               width="504"
               y="0"
               style="stroke-linecap:butt;stroke-linejoin:round"
               id="use104"
               xlink:href="#DejaVuSans-30"
               x="127.24609" />
          </g>
        </g>
      </g>
      <g
         style="stroke-linecap:butt;stroke-linejoin:round"
         id="xtick_6">
        <g
           style="stroke-linecap:butt;stroke-linejoin:round"
           id="line2d_6">
          <g
             style="stroke-linecap:butt;stroke-linejoin:round"
             id="g108">
            <use
               height="288"
               width="504"
               id="use110"
               y="232"
               xlink:href="#me2a01dd63f"
               x="465.94144"
               style="stroke:#000000;stroke-width:0.80000001;stroke-linecap:butt;stroke-linejoin:round" />
          </g>
        </g>
        <g
           style="stroke-linecap:butt;stroke-linejoin:round"
           id="text_6">
          <!-- 1000 -->
          <defs
             id="defs113">
            <path
               style="stroke-linecap:butt;stroke-linejoin:round"
               inkscape:connector-curvature="0"
               id="DejaVuSans-31"
               d="m 12.40625,8.296875 16.109375,0 0,55.625 -17.53125,-3.515625 0,8.984375 17.4375,3.515625 9.859375,0 0,-64.609375 16.109375,0 0,-8.296875 -41.984375,0 z" />
          </defs>
          <g
             style="stroke-linecap:butt;stroke-linejoin:round"
             id="g116"
             transform="matrix(0.15,0,0,-0.15,446.85393,250.39766)">
            <use
               height="288"
               width="504"
               y="0"
               x="0"
               style="stroke-linecap:butt;stroke-linejoin:round"
               id="use118"
               xlink:href="#DejaVuSans-31" />
            <use
               height="288"
               width="504"
               y="0"
               style="stroke-linecap:butt;stroke-linejoin:round"
               id="use120"
               xlink:href="#DejaVuSans-30"
               x="63.623047" />
            <use
               height="288"
               width="504"
               y="0"
               style="stroke-linecap:butt;stroke-linejoin:round"
               id="use122"
               xlink:href="#DejaVuSans-30"
               x="127.24609" />
            <use
               height="288"
               width="504"
               y="0"
               style="stroke-linecap:butt;stroke-linejoin:round"
               id="use124"
               xlink:href="#DejaVuSans-30"
               x="190.86914" />
          </g>
        </g>
      </g>
      <g
         style="stroke-linecap:butt;stroke-linejoin:round"
         id="text_7">
        <!-- step -->
        <defs
           id="defs127">
          <path
             style="stroke-linecap:butt;stroke-linejoin:round"
             inkscape:connector-curvature="0"
             id="DejaVuSans-73"
             d="m 44.28125,53.078125 0,-8.5 Q 40.484375,46.53125 36.375,47.5 q -4.09375,0.984375 -8.5,0.984375 -6.6875,0 -10.03125,-2.046875 Q 14.5,44.390625 14.5,40.28125 q 0,-3.125 2.390625,-4.90625 2.390625,-1.78125 9.625,-3.390625 l 3.078125,-0.6875 Q 39.15625,29.25 43.1875,25.515625 47.21875,21.78125 47.21875,15.09375 q 0,-7.625 -6.03125,-12.078125 -6.03125,-4.4375 -16.578125,-4.4375 -4.390625,0 -9.15625,0.859375 Q 10.6875,0.296875 5.421875,2 l 0,9.28125 q 4.984375,-2.59375 9.8125,-3.890625 4.828125,-1.28125 9.578125,-1.28125 6.34375,0 9.75,2.171875 3.421875,2.171875 3.421875,6.125 0,3.65625 -2.46875,5.609375 -2.453125,1.953125 -10.8125,3.765625 l -3.125,0.734375 q -8.34375,1.75 -12.0625,5.390625 -3.703125,3.640625 -3.703125,9.984375 0,7.71875 5.46875,11.90625 Q 16.75,56 26.8125,56 q 4.96875,0 9.359375,-0.734375 4.40625,-0.71875 8.109375,-2.1875 z" />
          <path
             style="stroke-linecap:butt;stroke-linejoin:round"
             inkscape:connector-curvature="0"
             id="DejaVuSans-74"
             d="m 18.3125,70.21875 0,-15.53125 18.5,0 0,-6.984375 -18.5,0 0,-29.6875 q 0,-6.6875 1.828125,-8.59375 1.828125,-1.90625 7.453125,-1.90625 l 9.21875,0 L 36.8125,0 27.59375,0 Q 17.1875,0 13.234375,3.875 9.28125,7.765625 9.28125,18.015625 l 0,29.6875 -6.59375,0 0,6.984375 6.59375,0 0,15.53125 z" />
          <path
             style="stroke-linecap:butt;stroke-linejoin:round"
             inkscape:connector-curvature="0"
             id="DejaVuSans-65"
             d="m 56.203125,29.59375 0,-4.390625 -41.3125,0 q 0.59375,-9.28125 5.59375,-14.140625 5,-4.859375 13.9375,-4.859375 5.171875,0 10.03125,1.265625 4.859375,1.265625 9.65625,3.8125 l 0,-8.5 q -4.84375,-2.046875 -9.921875,-3.125 -5.078125,-1.078125 -10.296875,-1.078125 -13.09375,0 -20.734375,7.609375 -7.640625,7.625 -7.640625,20.625 0,13.421875 7.25,21.296875 Q 20.015625,56 32.328125,56 q 11.03125,0 17.453125,-7.109375 6.421875,-7.09375 6.421875,-19.296875 z m -8.984375,2.640625 q -0.09375,7.359375 -4.125,11.75 -4.03125,4.40625 -10.671875,4.40625 -7.515625,0 -12.03125,-4.25 -4.515625,-4.25 -5.203125,-11.96875 z" />
          <path
             style="stroke-linecap:butt;stroke-linejoin:round"
             inkscape:connector-curvature="0"
             id="DejaVuSans-70"
             d="m 18.109375,8.203125 0,-29 -9.03125,0 0,75.484375 9.03125,0 0,-8.296875 q 2.84375,4.875 7.15625,7.234375 Q 29.59375,56 35.59375,56 q 9.96875,0 16.1875,-7.90625 6.234375,-7.90625 6.234375,-20.796875 0,-12.890625 -6.234375,-20.8125 -6.21875,-7.90625 -16.1875,-7.90625 -6,0 -10.328125,2.375 -4.3125,2.375 -7.15625,7.25 z M 48.6875,27.296875 q 0,9.90625 -4.078125,15.546875 -4.078125,5.640625 -11.203125,5.640625 -7.140625,0 -11.21875,-5.640625 -4.078125,-5.640625 -4.078125,-15.546875 0,-9.90625 4.078125,-15.546875 4.078125,-5.640625 11.21875,-5.640625 7.125,0 11.203125,5.640625 4.078125,5.640625 4.078125,15.546875 z" />
        </defs>
        <g
           style="stroke-linecap:butt;stroke-linejoin:round"
           id="g133"
           transform="matrix(0.15,0,0,-0.15,251.98656,268.91484)">
          <use
             height="288"
             width="504"
             y="0"
             x="0"
             style="stroke-linecap:butt;stroke-linejoin:round"
             id="use135"
             xlink:href="#DejaVuSans-73" />
          <use
             height="288"
             width="504"
             y="0"
             style="stroke-linecap:butt;stroke-linejoin:round"
             id="use137"
             xlink:href="#DejaVuSans-74"
             x="52.099609" />
          <use
             height="288"
             width="504"
             y="0"
             style="stroke-linecap:butt;stroke-linejoin:round"
             id="use139"
             xlink:href="#DejaVuSans-65"
             x="91.308594" />
          <use
             height="288"
             width="504"
             y="0"
             style="stroke-linecap:butt;stroke-linejoin:round"
             id="use141"
             xlink:href="#DejaVuSans-70"
             x="152.83203" />
        </g>
      </g>
    </g>
    <g
       style="stroke-linecap:butt;stroke-linejoin:round"
       id="matplotlib.axis_2">
      <g
         style="stroke-linecap:butt;stroke-linejoin:round"
         id="ytick_1">
        <g
           style="stroke-linecap:butt;stroke-linejoin:round"
           id="line2d_7">
          <defs
             id="defs146">
            <path
               inkscape:connector-curvature="0"
               style="stroke:#000000;stroke-width:0.80000001;stroke-linecap:butt;stroke-linejoin:round"
               id="m0bc41f3027"
               d="M 0,0 -3.5,0" />
          </defs>
          <g
             style="stroke-linecap:butt;stroke-linejoin:round"
             id="g149">
            <use
               height="288"
               width="504"
               id="use151"
               y="230.51424"
               xlink:href="#m0bc41f3027"
               x="51.139999"
               style="stroke:#000000;stroke-width:0.80000001;stroke-linecap:butt;stroke-linejoin:round" />
          </g>
        </g>
        <g
           style="stroke-linecap:butt;stroke-linejoin:round"
           id="text_8">
          <!-- 0 -->
          <g
             style="stroke-linecap:butt;stroke-linejoin:round"
             id="g154"
             transform="matrix(0.15,0,0,-0.15,34.59625,236.21307)">
            <use
               height="288"
               width="504"
               y="0"
               x="0"
               style="stroke-linecap:butt;stroke-linejoin:round"
               id="use156"
               xlink:href="#DejaVuSans-30" />
          </g>
        </g>
      </g>
      <g
         style="stroke-linecap:butt;stroke-linejoin:round"
         id="ytick_2">
        <g
           style="stroke-linecap:butt;stroke-linejoin:round"
           id="line2d_8">
          <g
             style="stroke-linecap:butt;stroke-linejoin:round"
             id="g160">
            <use
               height="288"
               width="504"
               id="use162"
               y="193.3703"
               xlink:href="#m0bc41f3027"
               x="51.139999"
               style="stroke:#000000;stroke-width:0.80000001;stroke-linecap:butt;stroke-linejoin:round" />
          </g>
        </g>
        <g
           style="stroke-linecap:butt;stroke-linejoin:round"
           id="text_9">
          <!-- 1 -->
          <g
             style="stroke-linecap:butt;stroke-linejoin:round"
             id="g165"
             transform="matrix(0.15,0,0,-0.15,34.59625,199.06913)">
            <use
               height="288"
               width="504"
               y="0"
               x="0"
               style="stroke-linecap:butt;stroke-linejoin:round"
               id="use167"
               xlink:href="#DejaVuSans-31" />
          </g>
        </g>
      </g>
      <g
         style="stroke-linecap:butt;stroke-linejoin:round"
         id="ytick_3">
        <g
           style="stroke-linecap:butt;stroke-linejoin:round"
           id="line2d_9">
          <g
             style="stroke-linecap:butt;stroke-linejoin:round"
             id="g171">
            <use
               height="288"
               width="504"
               id="use173"
               y="156.22636"
               xlink:href="#m0bc41f3027"
               x="51.139999"
               style="stroke:#000000;stroke-width:0.80000001;stroke-linecap:butt;stroke-linejoin:round" />
          </g>
        </g>
        <g
           style="stroke-linecap:butt;stroke-linejoin:round"
           id="text_10">
          <!-- 2 -->
          <g
             style="stroke-linecap:butt;stroke-linejoin:round"
             id="g176"
             transform="matrix(0.15,0,0,-0.15,34.59625,161.92519)">
            <use
               height="288"
               width="504"
               y="0"
               x="0"
               style="stroke-linecap:butt;stroke-linejoin:round"
               id="use178"
               xlink:href="#DejaVuSans-32" />
          </g>
        </g>
      </g>
      <g
         style="stroke-linecap:butt;stroke-linejoin:round"
         id="ytick_4">
        <g
           style="stroke-linecap:butt;stroke-linejoin:round"
           id="line2d_10">
          <g
             style="stroke-linecap:butt;stroke-linejoin:round"
             id="g182">
            <use
               height="288"
               width="504"
               id="use184"
               y="119.08242"
               xlink:href="#m0bc41f3027"
               x="51.139999"
               style="stroke:#000000;stroke-width:0.80000001;stroke-linecap:butt;stroke-linejoin:round" />
          </g>
        </g>
        <g
           style="stroke-linecap:butt;stroke-linejoin:round"
           id="text_11">
          <!-- 3 -->
          <defs
             id="defs187">
            <path
               style="stroke-linecap:butt;stroke-linejoin:round"
               inkscape:connector-curvature="0"
               id="DejaVuSans-33"
               d="M 40.578125,39.3125 Q 47.65625,37.796875 51.625,33 q 3.984375,-4.78125 3.984375,-11.8125 0,-10.78125 -7.421875,-16.703125 -7.421875,-5.90625 -21.09375,-5.90625 -4.578125,0 -9.4375,0.90625 -4.859375,0.90625 -10.03125,2.71875 l 0,9.515625 q 4.09375,-2.390625 8.96875,-3.609375 4.890625,-1.21875 10.21875,-1.21875 9.265625,0 14.125,3.65625 4.859375,3.65625 4.859375,10.640625 0,6.453125 -4.515625,10.078125 -4.515625,3.640625 -12.5625,3.640625 l -8.5,0 0,8.109375 8.890625,0 q 7.265625,0 11.125,2.90625 3.859375,2.90625 3.859375,8.375 0,5.609375 -3.984375,8.609375 -3.96875,3.015625 -11.390625,3.015625 -4.0625,0 -8.703125,-0.890625 Q 15.375,64.15625 9.8125,62.3125 l 0,8.78125 q 5.625,1.5625 10.53125,2.34375 4.90625,0.78125 9.25,0.78125 11.234375,0 17.765625,-5.109375 6.546875,-5.09375 6.546875,-13.78125 0,-6.0625 -3.46875,-10.234375 -3.46875,-4.171875 -9.859375,-5.78125 z" />
          </defs>
          <g
             style="stroke-linecap:butt;stroke-linejoin:round"
             id="g190"
             transform="matrix(0.15,0,0,-0.15,34.59625,124.78125)">
            <use
               height="288"
               width="504"
               y="0"
               x="0"
               style="stroke-linecap:butt;stroke-linejoin:round"
               id="use192"
               xlink:href="#DejaVuSans-33" />
          </g>
        </g>
      </g>
      <g
         style="stroke-linecap:butt;stroke-linejoin:round"
         id="ytick_5">
        <g
           style="stroke-linecap:butt;stroke-linejoin:round"
           id="line2d_11">
          <g
             style="stroke-linecap:butt;stroke-linejoin:round"
             id="g196">
            <use
               height="288"
               width="504"
               id="use198"
               y="81.938484"
               xlink:href="#m0bc41f3027"
               x="51.139999"
               style="stroke:#000000;stroke-width:0.80000001;stroke-linecap:butt;stroke-linejoin:round" />
          </g>
        </g>
        <g
           style="stroke-linecap:butt;stroke-linejoin:round"
           id="text_12">
          <!-- 4 -->
          <g
             style="stroke-linecap:butt;stroke-linejoin:round"
             id="g201"
             transform="matrix(0.15,0,0,-0.15,34.59625,87.637313)">
            <use
               height="288"
               width="504"
               y="0"
               x="0"
               style="stroke-linecap:butt;stroke-linejoin:round"
               id="use203"
               xlink:href="#DejaVuSans-34" />
          </g>
        </g>
      </g>
      <g
         style="stroke-linecap:butt;stroke-linejoin:round"
         id="ytick_6">
        <g
           style="stroke-linecap:butt;stroke-linejoin:round"
           id="line2d_12">
          <g
             style="stroke-linecap:butt;stroke-linejoin:round"
             id="g207">
            <use
               height="288"
               width="504"
               id="use209"
               y="44.794544"
               xlink:href="#m0bc41f3027"
               x="51.139999"
               style="stroke:#000000;stroke-width:0.80000001;stroke-linecap:butt;stroke-linejoin:round" />
          </g>
        </g>
        <g
           style="stroke-linecap:butt;stroke-linejoin:round"
           id="text_13">
          <!-- 5 -->
          <defs
             id="defs212">
            <path
               style="stroke-linecap:butt;stroke-linejoin:round"
               inkscape:connector-curvature="0"
               id="DejaVuSans-35"
               d="m 10.796875,72.90625 38.71875,0 0,-8.3125 -29.6875,0 0,-17.859375 q 2.140625,0.734375 4.28125,1.09375 2.15625,0.359375 4.3125,0.359375 Q 40.625,48.1875 47.75,41.5 54.890625,34.8125 54.890625,23.390625 54.890625,11.625 47.5625,5.09375 40.234375,-1.421875 26.90625,-1.421875 q -4.59375,0 -9.359375,0.78125 -4.75,0.78125 -9.828125,2.34375 l 0,9.921875 q 4.390625,-2.390625 9.078125,-3.5625 4.6875,-1.171875 9.90625,-1.171875 8.453125,0 13.375,4.4375 4.9375,4.4375 4.9375,12.0625 0,7.609375 -4.9375,12.046875 -4.921875,4.453125 -13.375,4.453125 -3.953125,0 -7.890625,-0.875 -3.921875,-0.875 -8.015625,-2.734375 z" />
          </defs>
          <g
             style="stroke-linecap:butt;stroke-linejoin:round"
             id="g215"
             transform="matrix(0.15,0,0,-0.15,34.59625,50.493374)">
            <use
               height="288"
               width="504"
               y="0"
               x="0"
               style="stroke-linecap:butt;stroke-linejoin:round"
               id="use217"
               xlink:href="#DejaVuSans-35" />
          </g>
        </g>
      </g>
      <g
         style="stroke-linecap:butt;stroke-linejoin:round"
         id="text_14">
        <!-- $\Theta$ -->
        <defs
           id="defs220">
          <path
             style="stroke-linecap:butt;stroke-linejoin:round"
             inkscape:connector-curvature="0"
             id="DejaVuSans-398"
             d="m 22.125,42.96875 34.46875,0 0,-8.296875 -34.46875,0 z m 17.28125,23.25 q -10.75,0 -17.046875,-8.015625 -6.34375,-8 -6.34375,-21.828125 0,-13.765625 6.3125,-21.78125 6.328125,-8 17.078125,-8 10.734375,0 17.046875,8 6.25,8.015625 6.25,21.78125 0,13.828125 -6.25,21.828125 -6.3125,8.015625 -17.046875,8.015625 z m 0,8 q 15.328125,0 24.5,-10.28125 9.1875,-10.28125 9.1875,-27.5625 0,-17.234375 -9.171875,-27.484375 -9.1875,-10.3125 -24.515625,-10.3125 -15.375,0 -24.5625,10.265625 -9.234375,10.25 -9.234375,27.53125 0,17.28125 9.234375,27.59375 9.1875,10.25 24.5625,10.25 z" />
        </defs>
        <g
           style="stroke-linecap:butt;stroke-linejoin:round"
           id="g223"
           transform="matrix(0,-0.15,-0.15,0,27.476719,139.865)">
          <use
             height="288"
             width="504"
             y="0"
             x="0"
             style="stroke-linecap:butt;stroke-linejoin:round"
             id="use225"
             xlink:href="#DejaVuSans-398"
             transform="translate(0,0.78125)" />
        </g>
      </g>
    </g>
    <g
       style="stroke-linecap:butt;stroke-linejoin:round"
       id="line2d_13">
      <path
         inkscape:connector-curvature="0"
         id="path228"
         style="fill:none;stroke:#1f77b4;stroke-width:5;stroke-linecap:square;stroke-linejoin:round"
         d="m 70.873636,44.794545 5.926017,8.762645 5.926017,8.349204 5.926017,7.955272 5.926017,7.579925 5.926016,7.222288 5.92602,6.881526 5.92602,6.556841 6.32108,6.653334 6.32108,6.31903 6.32109,6.00151 6.32108,5.69995 6.32109,5.41354 6.71615,5.45416 6.71615,5.16344 6.71616,4.88821 7.11122,4.89206 7.11122,4.61641 7.11122,4.35628 7.50629,4.33227 7.50628,4.07501 7.90136,4.02833 7.90135,3.77693 8.29643,3.71235 8.29642,3.46946 8.69149,3.39148 9.08656,3.29774 9.08656,3.06219 9.48163,2.96237 9.87669,2.85164 10.27177,2.73183 10.66683,2.60478 11.0619,2.47227 11.45696,2.33595 12.2471,2.26709 12.64217,2.11442 13.43231,2.02007 14.22244,1.91091 15.01257,1.79049 15.80272,1.66228 16.98791,1.56346 18.17312,1.4493 19.75339,1.3498 4.74081,0.29286 0,0"
         clip-path="url(#p65e3a4d605)" />
    </g>
    <g
       style="stroke-linecap:butt;stroke-linejoin:round"
       id="patch_3">
      <path
         inkscape:connector-curvature="0"
         id="path231"
         style="fill:none;stroke:#000000;stroke-width:0.80000001;stroke-linecap:square;stroke-linejoin:miter"
         d="m 51.14,232 0,-196.12" />
    </g>
    <g
       style="stroke-linecap:butt;stroke-linejoin:round"
       id="patch_4">
      <path
         inkscape:connector-curvature="0"
         id="path234"
         style="fill:none;stroke:#000000;stroke-width:0.80000001;stroke-linecap:square;stroke-linejoin:miter"
         d="m 485.28,232 0,-196.12" />
    </g>
    <g
       style="stroke-linecap:butt;stroke-linejoin:round"
       id="patch_5">
      <path
         inkscape:connector-curvature="0"
         id="path237"
         style="fill:none;stroke:#000000;stroke-width:0.80000001;stroke-linecap:square;stroke-linejoin:miter"
         d="m 51.14,232 434.14,0" />
    </g>
    <g
       style="stroke-linecap:butt;stroke-linejoin:round"
       id="patch_6">
      <path
         inkscape:connector-curvature="0"
         id="path240"
         style="fill:none;stroke:#000000;stroke-width:0.80000001;stroke-linecap:square;stroke-linejoin:miter"
         d="m 51.14,35.88 434.14,0" />
    </g>
    <g
       style="stroke-linecap:butt;stroke-linejoin:round"
       id="text_15">
      <!-- Temperature annealing scheme -->
      <defs
         id="defs243">
        <path
           style="stroke-linecap:butt;stroke-linejoin:round"
           inkscape:connector-curvature="0"
           id="DejaVuSans-54"
           d="m -0.296875,72.90625 61.671875,0 0,-8.3125 -25.875,0 L 35.5,0 l -9.90625,0 0,64.59375 -25.890625,0 z" />
        <path
           style="stroke-linecap:butt;stroke-linejoin:round"
           inkscape:connector-curvature="0"
           id="DejaVuSans-6d"
           d="M 52,44.1875 Q 55.375,50.25 60.0625,53.125 64.75,56 71.09375,56 q 8.546875,0 13.1875,-5.984375 4.640625,-5.96875 4.640625,-17 l 0,-33.015625 -9.03125,0 0,32.71875 q 0,7.859375 -2.796875,11.65625 -2.78125,3.8125 -8.484375,3.8125 -6.984375,0 -11.046875,-4.640625 -4.046875,-4.625 -4.046875,-12.640625 l 0,-30.90625 -9.03125,0 0,32.71875 q 0,7.90625 -2.78125,11.6875 -2.78125,3.78125 -8.59375,3.78125 -6.890625,0 -10.953125,-4.65625 -4.046875,-4.65625 -4.046875,-12.625 l 0,-30.90625 -9.03125,0 0,54.6875 9.03125,0 0,-8.5 q 3.078125,5.03125 7.375,7.421875 Q 29.78125,56 35.6875,56 41.65625,56 45.828125,52.96875 50,49.953125 52,44.1875 z" />
        <path
           style="stroke-linecap:butt;stroke-linejoin:round"
           inkscape:connector-curvature="0"
           id="DejaVuSans-72"
           d="m 41.109375,46.296875 q -1.515625,0.875 -3.296875,1.28125 Q 36.03125,48 33.890625,48 26.265625,48 22.1875,43.046875 18.109375,38.09375 18.109375,28.8125 l 0,-28.8125 -9.03125,0 0,54.6875 9.03125,0 0,-8.5 q 2.84375,4.984375 7.375,7.390625 Q 30.03125,56 36.53125,56 q 0.921875,0 2.046875,-0.125 1.125,-0.109375 2.484375,-0.359375 z" />
        <path
           style="stroke-linecap:butt;stroke-linejoin:round"
           inkscape:connector-curvature="0"
           id="DejaVuSans-61"
           d="m 34.28125,27.484375 q -10.890625,0 -15.09375,-2.484375 -4.203125,-2.484375 -4.203125,-8.5 0,-4.78125 3.15625,-7.59375 3.15625,-2.796875 8.5625,-2.796875 7.484375,0 12,5.296875 4.515625,5.296875 4.515625,14.078125 l 0,2 z m 17.921875,3.71875 0,-31.203125 -8.984375,0 0,8.296875 q -3.078125,-4.96875 -7.671875,-7.34375 -4.59375,-2.375 -11.234375,-2.375 -8.390625,0 -13.359375,4.71875 Q 6,8.015625 6,15.921875 q 0,9.21875 6.171875,13.90625 6.1875,4.6875 18.4375,4.6875 l 12.609375,0 0,0.890625 q 0,6.203125 -4.078125,9.59375 -4.078125,3.390625 -11.453125,3.390625 -4.6875,0 -9.140625,-1.125 -4.4375,-1.125 -8.53125,-3.375 l 0,8.3125 q 4.921875,1.90625 9.5625,2.84375 Q 24.21875,56 28.609375,56 q 11.875,0 17.734375,-6.15625 5.859375,-6.140625 5.859375,-18.640625 z" />
        <path
           style="stroke-linecap:butt;stroke-linejoin:round"
           inkscape:connector-curvature="0"
           id="DejaVuSans-75"
           d="m 8.5,21.578125 0,33.109375 8.984375,0 0,-32.765625 q 0,-7.765625 3.015625,-11.65625 3.03125,-3.875 9.09375,-3.875 7.265625,0 11.484375,4.640625 4.234375,4.640625 4.234375,12.65625 l 0,31 8.984375,0 0,-54.6875 -8.984375,0 0,8.40625 Q 42.046875,3.421875 37.71875,1 33.40625,-1.421875 27.6875,-1.421875 18.265625,-1.421875 13.375,4.4375 8.5,10.296875 8.5,21.578125 z M 31.109375,56 z" />
        <path
           style="stroke-linecap:butt;stroke-linejoin:round"
           inkscape:connector-curvature="0"
           d=""
           id="DejaVuSans-20" />
        <path
           style="stroke-linecap:butt;stroke-linejoin:round"
           inkscape:connector-curvature="0"
           id="DejaVuSans-6e"
           d="m 54.890625,33.015625 0,-33.015625 -8.984375,0 0,32.71875 q 0,7.765625 -3.03125,11.609375 -3.03125,3.859375 -9.078125,3.859375 -7.28125,0 -11.484375,-4.640625 -4.203125,-4.625 -4.203125,-12.640625 l 0,-30.90625 -9.03125,0 0,54.6875 9.03125,0 0,-8.5 q 3.234375,4.9375 7.59375,7.375 4.375,2.4375 10.09375,2.4375 9.421875,0 14.25,-5.828125 4.84375,-5.828125 4.84375,-17.15625 z" />
        <path
           style="stroke-linecap:butt;stroke-linejoin:round"
           inkscape:connector-curvature="0"
           id="DejaVuSans-6c"
           d="m 9.421875,75.984375 8.984375,0 L 18.40625,0 9.421875,0 z" />
        <path
           style="stroke-linecap:butt;stroke-linejoin:round"
           inkscape:connector-curvature="0"
           id="DejaVuSans-69"
           d="m 9.421875,54.6875 8.984375,0 0,-54.6875 -8.984375,0 z m 0,21.296875 8.984375,0 0,-11.390625 -8.984375,0 z" />
        <path
           style="stroke-linecap:butt;stroke-linejoin:round"
           inkscape:connector-curvature="0"
           id="DejaVuSans-67"
           d="m 45.40625,27.984375 q 0,9.765625 -4.03125,15.125 -4.015625,5.375 -11.296875,5.375 -7.21875,0 -11.25,-5.375 -4.03125,-5.359375 -4.03125,-15.125 0,-9.71875 4.03125,-15.09375 4.03125,-5.375 11.25,-5.375 7.28125,0 11.296875,5.375 4.03125,5.375 4.03125,15.09375 z M 54.390625,6.78125 q 0,-13.953125 -6.203125,-20.765625 -6.1875,-6.8125 -18.984375,-6.8125 -4.734375,0 -8.9375,0.703125 -4.203125,0.703125 -8.15625,2.171875 l 0,8.734375 q 3.953125,-2.140625 7.8125,-3.15625 3.859375,-1.03125 7.859375,-1.03125 8.84375,0 13.234375,4.609375 4.390625,4.609375 4.390625,13.9375 l 0,4.453125 Q 42.625,4.78125 38.28125,2.390625 33.9375,0 27.875,0 17.828125,0 11.671875,7.65625 q -6.15625,7.671875 -6.15625,20.328125 0,12.6875 6.15625,20.34375 Q 17.828125,56 27.875,56 q 6.0625,0 10.40625,-2.390625 4.34375,-2.390625 7.125,-7.21875 l 0,8.296875 8.984375,0 z" />
        <path
           style="stroke-linecap:butt;stroke-linejoin:round"
           inkscape:connector-curvature="0"
           id="DejaVuSans-63"
           d="m 48.78125,52.59375 0,-8.40625 q -3.8125,2.109375 -7.640625,3.15625 -3.828125,1.046875 -7.734375,1.046875 -8.75,0 -13.59375,-5.546875 -4.828125,-5.53125 -4.828125,-15.546875 0,-10.015625 4.828125,-15.5625 4.84375,-5.53125 13.59375,-5.53125 3.90625,0 7.734375,1.046875 3.828125,1.046875 7.640625,3.15625 l 0,-8.3125 q -3.765625,-1.75 -7.796875,-2.625 -4.015625,-0.890625 -8.5625,-0.890625 -12.359375,0 -19.640625,7.765625 -7.265625,7.765625 -7.265625,20.953125 0,13.375 7.34375,21.03125 Q 20.21875,56 33.015625,56 q 4.140625,0 8.09375,-0.859375 3.953125,-0.84375 7.671875,-2.546875 z" />
        <path
           style="stroke-linecap:butt;stroke-linejoin:round"
           inkscape:connector-curvature="0"
           id="DejaVuSans-68"
           d="m 54.890625,33.015625 0,-33.015625 -8.984375,0 0,32.71875 q 0,7.765625 -3.03125,11.609375 -3.03125,3.859375 -9.078125,3.859375 -7.28125,0 -11.484375,-4.640625 -4.203125,-4.625 -4.203125,-12.640625 l 0,-30.90625 -9.03125,0 0,75.984375 9.03125,0 0,-29.796875 q 3.234375,4.9375 7.59375,7.375 4.375,2.4375 10.09375,2.4375 9.421875,0 14.25,-5.828125 4.84375,-5.828125 4.84375,-17.15625 z" />
      </defs>
      <g
         style="stroke-linecap:butt;stroke-linejoin:round"
         id="g257"
         transform="matrix(0.18,0,0,-0.18,124.20156,29.88)">
        <use
           height="288"
           width="504"
           y="0"
           x="0"
           style="stroke-linecap:butt;stroke-linejoin:round"
           id="use259"
           xlink:href="#DejaVuSans-54" />
        <use
           height="288"
           width="504"
           y="0"
           style="stroke-linecap:butt;stroke-linejoin:round"
           id="use261"
           xlink:href="#DejaVuSans-65"
           x="60.818359" />
        <use
           height="288"
           width="504"
           y="0"
           style="stroke-linecap:butt;stroke-linejoin:round"
           id="use263"
           xlink:href="#DejaVuSans-6d"
           x="122.3418" />
        <use
           height="288"
           width="504"
           y="0"
           style="stroke-linecap:butt;stroke-linejoin:round"
           id="use265"
           xlink:href="#DejaVuSans-70"
           x="219.75391" />
        <use
           height="288"
           width="504"
           y="0"
           style="stroke-linecap:butt;stroke-linejoin:round"
           id="use267"
           xlink:href="#DejaVuSans-65"
           x="283.23047" />
        <use
           height="288"
           width="504"
           y="0"
           style="stroke-linecap:butt;stroke-linejoin:round"
           id="use269"
           xlink:href="#DejaVuSans-72"
           x="344.75391" />
        <use
           height="288"
           width="504"
           y="0"
           style="stroke-linecap:butt;stroke-linejoin:round"
           id="use271"
           xlink:href="#DejaVuSans-61"
           x="385.86719" />
        <use
           height="288"
           width="504"
           y="0"
           style="stroke-linecap:butt;stroke-linejoin:round"
           id="use273"
           xlink:href="#DejaVuSans-74"
           x="447.14648" />
        <use
           height="288"
           width="504"
           y="0"
           style="stroke-linecap:butt;stroke-linejoin:round"
           id="use275"
           xlink:href="#DejaVuSans-75"
           x="486.35547" />
        <use
           height="288"
           width="504"
           y="0"
           style="stroke-linecap:butt;stroke-linejoin:round"
           id="use277"
           xlink:href="#DejaVuSans-72"
           x="549.73438" />
        <use
           height="288"
           width="504"
           y="0"
           style="stroke-linecap:butt;stroke-linejoin:round"
           id="use279"
           xlink:href="#DejaVuSans-65"
           x="590.81641" />
        <use
           height="288"
           width="504"
           y="0"
           style="stroke-linecap:butt;stroke-linejoin:round"
           id="use281"
           xlink:href="#DejaVuSans-20"
           x="652.33984" />
        <use
           height="288"
           width="504"
           y="0"
           style="stroke-linecap:butt;stroke-linejoin:round"
           id="use283"
           xlink:href="#DejaVuSans-61"
           x="684.12695" />
        <use
           height="288"
           width="504"
           y="0"
           style="stroke-linecap:butt;stroke-linejoin:round"
           id="use285"
           xlink:href="#DejaVuSans-6e"
           x="745.40625" />
        <use
           height="288"
           width="504"
           y="0"
           style="stroke-linecap:butt;stroke-linejoin:round"
           id="use287"
           xlink:href="#DejaVuSans-6e"
           x="808.78516" />
        <use
           height="288"
           width="504"
           y="0"
           style="stroke-linecap:butt;stroke-linejoin:round"
           id="use289"
           xlink:href="#DejaVuSans-65"
           x="872.16406" />
        <use
           height="288"
           width="504"
           y="0"
           style="stroke-linecap:butt;stroke-linejoin:round"
           id="use291"
           xlink:href="#DejaVuSans-61"
           x="933.6875" />
        <use
           height="288"
           width="504"
           y="0"
           style="stroke-linecap:butt;stroke-linejoin:round"
           id="use293"
           xlink:href="#DejaVuSans-6c"
           x="994.9668" />
        <use
           height="288"
           width="504"
           y="0"
           style="stroke-linecap:butt;stroke-linejoin:round"
           id="use295"
           xlink:href="#DejaVuSans-69"
           x="1022.75" />
        <use
           height="288"
           width="504"
           y="0"
           style="stroke-linecap:butt;stroke-linejoin:round"
           id="use297"
           xlink:href="#DejaVuSans-6e"
           x="1050.5332" />
        <use
           height="288"
           width="504"
           y="0"
           style="stroke-linecap:butt;stroke-linejoin:round"
           id="use299"
           xlink:href="#DejaVuSans-67"
           x="1113.9121" />
        <use
           height="288"
           width="504"
           y="0"
           style="stroke-linecap:butt;stroke-linejoin:round"
           id="use301"
           xlink:href="#DejaVuSans-20"
           x="1177.3887" />
        <use
           height="288"
           width="504"
           y="0"
           style="stroke-linecap:butt;stroke-linejoin:round"
           id="use303"
           xlink:href="#DejaVuSans-73"
           x="1209.1758" />
        <use
           height="288"
           width="504"
           y="0"
           style="stroke-linecap:butt;stroke-linejoin:round"
           id="use305"
           xlink:href="#DejaVuSans-63"
           x="1261.2754" />
        <use
           height="288"
           width="504"
           y="0"
           style="stroke-linecap:butt;stroke-linejoin:round"
           id="use307"
           xlink:href="#DejaVuSans-68"
           x="1316.2559" />
        <use
           height="288"
           width="504"
           y="0"
           style="stroke-linecap:butt;stroke-linejoin:round"
           id="use309"
           xlink:href="#DejaVuSans-65"
           x="1379.6348" />
        <use
           height="288"
           width="504"
           y="0"
           style="stroke-linecap:butt;stroke-linejoin:round"
           id="use311"
           xlink:href="#DejaVuSans-6d"
           x="1441.1582" />
        <use
           height="288"
           width="504"
           y="0"
           style="stroke-linecap:butt;stroke-linejoin:round"
           id="use313"
           xlink:href="#DejaVuSans-65"
           x="1538.5703" />
      </g>
    </g>
  </g>
  <defs
     id="defs315">
    <clipPath
       id="p65e3a4d605">
      <rect
         height="196.12"
         width="434.14001"
         x="51.139999"
         y="35.880001"
         id="rect318"
         style="stroke-linecap:butt;stroke-linejoin:round" />
    </clipPath>
  </defs>
</svg>
